<?xml version="1.0" standalone="no"?>
<!DOCTYPE svg PUBLIC "-//W3C//DTD SVG 20010904//EN"
 "http://www.w3.org/TR/2001/REC-SVG-20010904/DTD/svg10.dtd">
<svg version="1.0" xmlns="http://www.w3.org/2000/svg"
 width="150.000000pt" height="150.000000pt" viewBox="0 0 150.000000 150.000000"
 preserveAspectRatio="xMidYMid meet">
<metadata>
Created by potrace 1.15, written by Peter Selinger 2001-2017
</metadata>
<g transform="translate(0.000000,150.000000) scale(0.100000,-0.100000)"
fill="#000000" stroke="none">
<path d="M302 1017 l-252 -252 0 -113 0 -112 255 0 255 0 0 -130 0 -130 135 0
135 0 0 240 0 240 -252 0 -253 0 255 255 255 255 -140 0 -140 0 -253 -253z"/>
<path d="M930 1133 l0 -138 130 130 130 130 0 -120 0 -120 -130 -130 -130
-130 0 -132 0 -133 260 0 260 0 0 137 0 138 -125 -125 -125 -125 0 122 0 121
125 117 125 117 0 139 0 139 -260 0 -260 0 0 -137z"/>
</g>
</svg>
